<?xml version="1.0" encoding="utf-8"?>
<svg xmlns="http://www.w3.org/2000/svg" viewBox="0 0 100 100">
  <path fill="#b5e1e6" d="M59 86.8c0 4.1-3.3 7.3-7.3 7.3s-7.3-3.3-7.3-7.3c0-4.1 3.3-7.3 7.3-7.3 4-.1 7.3 3.2 7.3 7.3zm18.2-39.6c0 .8-.6 1.4-1.3 1.4h-18c-.7 0-1.3-.6-1.3-1.4v-2.4c0-.8.6-1.4 1.3-1.4h18c.7 0 1.3.6 1.3 1.4v2.4z"/>
  <path fill="#b5e1e6" d="M80.1 59.8v-2.2c0-3-2.3-5.5-5.2-5.7v-3.5H58.6V52c-2.8.4-4.9 2.8-4.9 5.7v2.2h26.4zm-26.4 19v4.3c0 3.2 2.6 5.7 5.7 5.7h14.9c3.2 0 5.7-2.6 5.7-5.7v-4.3H53.7z"/>
  <path fill="#771c77" d="M53.3 95.3c-4.1 0-7.4-3.3-7.4-7.4 0-2.3 1.1-4.5 2.9-5.9 1.3-1 2.8-1.5 4.4-1.5 4.1 0 7.4 3.3 7.4 7.4 0 4.1-3.3 7.4-7.3 7.4zm0-13.7c-1.4 0-2.7.4-3.8 1.3C47.9 84.1 47 86 47 88c0 3.5 2.9 6.4 6.4 6.4 3.5 0 6.4-2.9 6.4-6.4-.2-3.5-3-6.4-6.5-6.4z"/>
  <path fill="#771c77" d="M46.6 87.5h13.3v1H46.6z"/>
  <path fill="#771c77" d="M76.4 91.5h-15c-.7 0-1.3-.1-1.9-.3l.3-1c.5.2 1.1.3 1.6.3h14.9c2.9 0 5.2-2.3 5.2-5.2V59.9c0-2.7-2.1-5-4.8-5.2h-.5v-3.5H61.1v3.5l-.4.1c-2.6.4-4.5 2.6-4.5 5.2v21.7h-1V59.9c0-2.9 2.1-5.5 4.9-6.1v-3.6h17.2v3.6c3 .5 5.2 3.1 5.2 6.1v25.4c.1 3.5-2.7 6.2-6.1 6.2z"/>
  <path fill="#771c77" d="M77.9 51.1h-18c-1 0-1.8-.8-1.8-1.8h1c0 .5.4.8.8.8h18c.5 0 .8-.4.8-.8V47c0-.5-.4-.8-.8-.8H64.4v-1h13.5c1 0 1.8.8 1.8 1.8v2.3c0 1-.8 1.8-1.8 1.8zM55.7 61h26.6v1H55.7zm0 19h26.6v1H55.7zm8-6.5c-1 0-1.8-.8-1.8-1.7v-1c0-.9.8-1.7 1.8-1.7s1.8.8 1.8 1.7v1c0 .9-.8 1.7-1.8 1.7zm0-3.4c-.4 0-.8.3-.8.7v1c0 .4.3.7.8.7.4 0 .8-.3.8-.7v-1c0-.4-.4-.7-.8-.7zm2.9-1.2c-1 0-1.8-.8-1.8-1.7v-1c0-.9.8-1.7 1.8-1.7s1.8.8 1.8 1.7v1c0 .9-.8 1.7-1.8 1.7zm0-3.4c-.4 0-.8.3-.8.7v1c0 .4.3.7.8.7.4 0 .8-.3.8-.7v-1c0-.4-.4-.7-.8-.7zm7.7 8c-1 0-1.8-.8-1.8-1.7v-1c0-.9.8-1.7 1.8-1.7s1.8.8 1.8 1.7v1c0 .9-.8 1.7-1.8 1.7zm0-3.4c-.4 0-.8.3-.8.7v1c0 .4.3.7.8.7.4 0 .8-.3.8-.7v-1c0-.4-.4-.7-.8-.7zm-2.9-1.2c-1 0-1.8-.8-1.8-1.7v-1c0-.9.8-1.7 1.8-1.7s1.8.8 1.8 1.7v1c-.1.9-.9 1.7-1.8 1.7zm0-3.4c-.4 0-.8.3-.8.7v1c0 .4.3.7.8.7.4 0 .8-.3.8-.7v-1c-.1-.4-.4-.7-.8-.7zm-1.2 12.3h-2.5c-.7 0-2.9 0-3.3-1.6-.2-.7 0-2.1 1.4-2.7l.2-.8c.4-1.4 1-2.7 2.6-2.9h.6c1.7.1 2.3 1.5 2.7 2.9l.2.8c1.4.6 1.6 2 1.4 2.7-.4 1.6-2.5 1.6-3.3 1.6zm-1.5-1.1h1.6c1.4 0 2.2-.3 2.4-.9.1-.3.1-1.2-1-1.6l-.2-.1-.5-1.2c-.5-1.7-1-2.1-1.8-2.2h-.4c-.7.1-1.2.5-1.7 2.2l-.3 1.3-.2.1c-1.1.4-1.1 1.3-1 1.6.2.6.9.9 2.4.9h.6l.1-.1z"/>
  <path fill="#b5e1e6" d="M49.2 5.2c-6.2-.2-12 2.8-15.3 8-.6 1-1.7 1.5-2.8 1.5h-.3c-.3 0-.6.1-.8.3-3.5 3.4-5.9 7.6-7.1 12.3-.3 1.2-.2 2.4.3 3.5 1.2 2.8 3.1 5.2 5.5 7 .5.4 1.2.3 1.6-.2.1-.1.2-.3.2-.5.6-4.1.8-8.2.5-12.3 0-.6.5-1.1 1.1-1.1.6 0 1 .4 1.1 1 .2 2.4.2 4.9 0 7.3.5 1.1 1.2 2.1 2.1 2.9.4-1.3.8-2.7 1.2-4 .2-.6.8-.9 1.3-.7.6.2.9.8.7 1.3-.8 2.7-1.6 5.4-2.3 8.1v.2c-.2 3.7 2.7 6.7 6.3 6.9 1.6.1 3.2-.5 4.5-1.5v-1.8h2.2v1.8c2.7 2.4 6.9 2.2 9.3-.5 1.1-1.2 1.7-2.8 1.7-4.5V40c-.6-2.8-1.2-5.5-2-8.2-.1-.6.2-1.2.8-1.3.5-.1 1.1.2 1.3.7.4 1.3.7 2.7 1 4.1.9-.8 1.7-1.7 2.3-2.8 0-2.4.1-4.9.3-7.3.1-.6.6-1 1.2-1 .6.1 1 .6 1 1.2-.4 4.1-.4 8.2 0 12.3.1.6.6 1.1 1.2 1 .2 0 .4-.1.5-.2 2.5-1.7 4.5-4 5.7-6.7.5-1.1.7-2.3.4-3.5-1-4.7-3.3-9.1-6.6-12.5-.2-.2-.5-.3-.8-.3h-.3c-1.1 0-2.2-.6-2.8-1.6-2.8-5.3-8.2-8.5-14.2-8.7z"/>
  <path fill="#771c77" d="M58.6 50.3c-1.7 0-3.4-.6-4.6-1.7l-.2-.1V47h-1.2v1.5l-.2.1c-1.3 1.1-2.9 1.7-4.6 1.7h-.2c-3.9-.1-7-3.4-6.9-7.3v-.2c.6-2.8 1.3-5.6 2.1-8.2v-.5l-.3-.3c-.3-.1-.6.1-.7.4-.4 1.3-.8 2.7-1.1 4l-.3.8-.6-.5c-1-.8-1.8-1.9-2.3-3l-.1-.1v-.1c.1-2.4 0-4.8-.2-7.2 0-.3-.3-.5-.6-.5-.2 0-.3.1-.4.2-.1.1-.2.3-.2.4.3 4.1.3 8.3-.3 12.4 0 .3-.1.5-.3.7-.5.7-1.5.9-2.2.4-2.5-1.8-4.5-4.2-5.8-7.1-.5-1.2-.7-2.5-.4-3.8 1.1-4.8 3.5-9.2 7-12.7.3-.3.7-.5 1.1-.5h.3c1 0 1.8-.5 2.4-1.3 3.3-5.3 9-8.5 15.3-8.5h.3c6.1.1 11.7 3.3 14.9 8.5.5.8 1.4 1.3 2.4 1.3h.3c.4 0 .8.2 1.1.5 3.5 3.5 5.9 7.9 7 12.6.3 1.3.2 2.6-.4 3.8-1.3 2.8-3.3 5.3-5.8 7.1-.1.1-.3.2-.5.2-.1 0-.2 0-.3.1-.9.1-1.7-.5-1.8-1.4-.5-4.1-.6-8.3-.3-12.4 0-.2 0-.3-.1-.4-.1-.1-.2-.2-.4-.2-.3 0-.6.2-.6.5-.2 2.4-.3 4.8-.2 7.2v.1l.3.2c-.6 1.2-1.4 2.2-2.3 3l-.7.5-.2-.8c-.4-1.3-.7-2.7-1.1-4-.1-.2-.4-.4-.7-.3-.3.1-.4.3-.4.6v.1c.8 2.7 1.5 5.4 2.1 8.2v.4c0 1.7-.6 3.4-1.7 4.8-1.3 1.4-3.3 2.3-5.4 2.3zM54.8 48c1.1.9 2.4 1.3 3.8 1.3 1.8 0 3.5-.8 4.6-2.1 1-1.1 1.5-2.6 1.5-4.1v-.2c-.6-2.6-1.3-5.2-2-7.7l-.1-.4c-.2-.8.3-1.7 1.2-1.9.8-.2 1.6.3 1.9 1l.9 3.3c.6-.6 1.1-1.3 1.4-2-.1-2.4 0-4.9.2-7.2.1-.8.7-1.4 1.6-1.4h.1c.4 0 .8.2 1.1.6.3.3.4.7.4 1.2-.3 4.1-.2 8.2.3 12.2 0 .3.3.5.6.5h.2c.1 0 .1 0 .2-.1 2.4-1.7 4.3-4 5.5-6.7.4-1 .6-2.1.3-3.2-1.1-4.6-3.4-8.8-6.7-12.2-.1-.1-.3-.2-.4-.2h-.3c-1.3 0-2.5-.7-3.2-1.8-3-4.9-8.3-7.9-14.1-8h-.3c-5.9 0-11.3 3-14.4 8-.7 1.1-1.9 1.8-3.2 1.8h-.3c-.2 0-.3.1-.4.2-3.3 3.4-5.7 7.6-6.7 12.2-.2 1.1-.1 2.2.3 3.2 1.2 2.7 3.1 5 5.4 6.7.3.2.7.1.8-.1.1-.1.1-.2.1-.3.5-4 .6-8.1.3-12.2 0-.4.1-.8.4-1.2.3-.3.7-.5 1.1-.5.9 0 1.5.6 1.6 1.4.2 2.4.3 4.9.2 7.3.4.7.9 1.4 1.4 2 .3-1.1.6-2.2.9-3.2.2-.8 1.1-1.3 1.9-1.1.4.1.7.4 1 .7.2.4.3.8.1 1.2-.8 2.7-1.5 5.4-2.1 8.2v.1c-.1 3.4 2.6 6.2 6 6.3h.2c1.4 0 2.7-.5 3.8-1.3v-2.1h3.2V48z"/>
  <path fill="#771c77" d="M50.2 42.2l3 2.3 3-2.3c.9-.7 1-1.9.4-2.8-.4-.5-1-.8-1.6-.8h-3.7c-1.1 0-2 .9-2 2 .1.6.4 1.2.9 1.6zm-5.7-19.6c1 0 1.8.8 1.8 1.8.1 1-.7 1.9-1.7 1.9-1 .1-1.9-.7-1.9-1.7v-.2c-.1-.9.7-1.8 1.8-1.8-.1 0-.1 0 0 0zm17.5 0c1 0 1.8.8 1.8 1.8.1 1-.7 1.9-1.7 2-1 .1-1.9-.7-2-1.7v-.2c0-1 .8-1.9 1.9-1.9z"/>
  <path fill="#771c77" d="M52.7 42.7h1v3.7h-1z"/>
  <path fill="#b5e1e6" d="M36.7 57.6c5.9-5.5 11.4-8.7 11.5-2.8 0 4.6.1 8.2-.8 10.5.8 1.6 1.3 3.2 1.3 5 0 5.3-3.8 9.9-9.1 11.9.4-1.2.6-2.3.4-3.2-.8-4-3.5-2.6-4.9-6.6-1.5-3.6-2.6-3.6-4 0-1.5 4-4.1 2.6-4.9 6.6-.2.9-.1 2 .4 3.2-5.3-2-9-6.6-9-11.9 0-1.8.4-3.4 1.1-5-.9-2.3-.8-5.9-.7-10.5.1-5.8 5.5-2.7 11.5 2.8 2.3-.4 5-.4 7.2 0z"/>
  <path fill="#771c77" d="M41.7 84.9l.4-1.1c.5-1.2.7-2.2.5-2.9-.4-1.8-1.2-2.4-2.1-3-1-.7-2-1.4-2.8-3.5-.9-2.3-1.5-2.4-1.5-2.4-.1 0-.6.1-1.5 2.4-.8 2.1-1.8 2.8-2.8 3.5-1 .7-1.7 1.2-2.1 3-.2.9-.1 1.8.4 2.9l.4 1.1-1.1-.4c-5.6-2.1-9.3-6.9-9.3-12.4 0-1.7.4-3.4 1.1-5-.9-2.3-.8-5.8-.7-10.2v-.3c.1-3 1.5-3.6 2.6-3.6 2 0 5.2 2 9.5 5.9 2.1-.4 4.7-.4 6.8 0C43.7 55 46.9 53 49 53c1.2 0 2.6.6 2.6 3.6v1.3c0 3.9 0 7.1-.8 9.3.8 1.6 1.2 3.3 1.2 5 0 5.4-3.7 10.2-9.4 12.4l-.9.3zM23.4 54c-.4 0-1.6 0-1.6 2.6v.3c-.1 4.4-.2 7.9.7 10l.1.2-.1.2c-.7 1.6-1.1 3.2-1.1 4.8 0 4.7 3 8.9 7.6 11-.2-.9-.2-1.7-.1-2.5.5-2.2 1.5-3 2.5-3.7.9-.6 1.8-1.2 2.4-3 .8-2.1 1.5-3.1 2.4-3.1.9 0 1.6.9 2.5 3 .6 1.8 1.5 2.4 2.4 3 1 .7 2.1 1.4 2.5 3.6.2.7.1 1.5-.2 2.4 4.7-2.1 7.7-6.4 7.7-11 0-1.7-.4-3.3-1.2-4.8l-.1-.2.2.2c.8-2 .8-5.1.8-9.1v-1.2c0-2.6-1.2-2.6-1.6-2.6-1.8 0-5 2.1-9 5.8l-.2.1h-.2c-2.1-.4-4.8-.4-6.9 0h-.2l-.2-.2c-4.2-3.7-7.4-5.8-9.1-5.8zm1 13.7l-.2-.3C23 65.7 23 61.6 23 57.8v-1.2c0-.2 0-.6.1-1l.1-.4.4.1c.8.2 2.2 1.1 3 1.5l.3.2c1.4 1.1 3 2.3 4.7 3.9l.4.3-.3.4c-1.5 1.6-5.1 5.2-7 5.9l-.3.2zM24 56.5v1.4c-.1 2.3-.2 6.8.8 8.6 1.4-.7 3.8-3 5.9-5.1-1.5-1.4-2.9-2.5-4.2-3.5l-.3-.2c-.5-.3-1.5-.9-2.2-1.2zm24.1 11.2l-.3-.1c-1.4-.4-3.6-2.3-7-5.9l-.3-.4.4-.3c1.4-1.3 2.9-2.7 4.6-3.9.1-.1.2-.2.4-.2.8-.5 2-1.3 2.9-1.5l.6-.1v.6c0 .1 0 .3.1.4 0 .2.1.3.1.4v1.1c.1 3.8.1 7.9-1.2 9.6l-.3.3zm-6.2-6.3c3.2 3.4 5 4.7 5.9 5.1.9-1.8.8-6.4.8-8.6v-1.4c-.7.3-1.5.8-2.1 1.2-.2.1-.3.2-.4.2-1.6 1-2.9 2.3-4.2 3.5z"/>
  <path fill="#771c77" d="M35.3 80.4l-.7-1.2c-.5-.9-.5-1 .5-1h2.2c1.1 0 1.1.1.6 1l-.7 1.2c-.1.2-.2.3-.3.4.5 1.8 3.2.8 2.5-.8-.2-.5.5-.8.7-.3 1 2.6-2.9 4.1-3.9 1.7-1 2.4-5 .9-3.9-1.7.2-.5.9-.2.7.3-.7 1.7 2 2.6 2.4.8.1-.1 0-.2-.1-.4zM44 69c-1 0-1.9.8-1.9 1.9 0 1.1.8 2 1.9 2 1 0 1.9-.8 1.9-2-.1-1-.9-1.9-1.9-1.9zm-15.2 0c1 0 1.9.8 1.9 1.9 0 1-.8 1.9-1.9 1.9-1 0-1.9-.8-1.9-1.9 0-1.1.8-1.9 1.9-1.9z"/>
</svg>